<?xml version="1.0" encoding="utf-8"?>
<!-- Generator: Adobe Illustrator 22.1.0, SVG Export Plug-In . SVG Version: 6.00 Build 0)  -->
<svg version="1.1" id="Layer_1" xmlns="http://www.w3.org/2000/svg" xmlns:xlink="http://www.w3.org/1999/xlink" x="0px" y="0px"
	 viewBox="0 0 40 39" style="enable-background:new 0 0 40 39;" xml:space="preserve">
<style type="text/css">
	.st0{opacity:0.4;fill:none;stroke:#BFBB50;enable-background:new    ;}
	.st1{fill:#BFBB50;}
</style>
<path id="Path-9-Copy" class="st0" d="M1,19.5h30"/>
<path id="Oval-Copy-4" class="st1" d="M30.5,21c0.8,0,1.5-0.7,1.5-1.5S31.3,18,30.5,18S29,18.7,29,19.5S29.7,21,30.5,21z"/>
<path id="Oval-Copy-5" class="st1" d="M1.5,21C2.3,21,3,20.3,3,19.5S2.3,18,1.5,18S0,18.7,0,19.5S0.7,21,1.5,21z"/>
<path id="Rectangle-6-Copy-8" class="st1" d="M35,15c0.8,1.5,2.5,3,5,4.5c-2.5,1.5-4.2,3-5,4.5v-3l1.2-1.5L35,18V15z"/>
</svg>
