<?xml version="1.0" encoding="UTF-8"?>
<svg width="37px" height="14px" viewBox="0 0 37 14" version="1.1" xmlns="http://www.w3.org/2000/svg" xmlns:xlink="http://www.w3.org/1999/xlink">
    <!-- Generator: Sketch 52.2 (67145) - http://www.bohemiancoding.com/sketch -->
    <title>Fill 35</title>
    <desc>Created with Sketch.</desc>
    <g id="balls-page" stroke="none" stroke-width="1" fill="none" fill-rule="evenodd">
        <g id="balls-main-1600" transform="translate(-782.000000, -3026.000000)" fill="#BFBB50">
            <g id="instagram" transform="translate(0.000000, 3020.000000)">
                <g id="sep" transform="translate(210.000000, 6.000000)">
                    <path d="M589.778893,8.39522491 L591.677301,6.49121107 L590.769204,5.58934256 L588.870796,7.48775087 L589.778893,8.39522491 Z M593.978062,8.18906574 L595.877093,6.2850519 L594.968997,5.38318339 L593.070588,7.28096886 L593.978062,8.18906574 Z M590.01308,4.22346021 L591.911488,2.31944637 L591.003391,1.41757785 L589.104983,3.31536332 L590.01308,4.22346021 Z M589.517301,12.649827 L591.415709,10.7458131 L590.507612,9.84456747 L588.609204,11.7423529 L589.517301,12.649827 Z M585.551696,8.68484429 L587.450104,6.78083045 L586.542007,5.87896194 L584.643599,7.7767474 L585.551696,8.68484429 Z M589.681107,4.56103806 C589.681107,4.56103806 588.251073,3.1266436 587.741592,2.61716263 C586.049343,0.924913495 583.877509,1.40138408 583.671972,3.0232526 C583.627751,3.3782699 583.46519,3.30913495 583.424706,3.07868512 C583.145675,1.49792388 585.670657,0.0361245675 588.010035,2.19737024 L590.23045,0 L592.303253,2.05910035 C594.331211,0.00809688581 597.865813,1.0650519 597.714464,3.32595156 C597.699516,3.55951557 597.490865,3.62865052 597.467197,3.27114187 C597.34263,1.42692042 595.224983,1.0650519 593.27301,3.04256055 L591.078131,5.23806228 L592.006159,6.15176471 L594.195433,3.96560554 L596.2209,5.93875433 C597.372526,4.78899654 599.791003,2.75107266 600.964429,1.89404844 C604.381315,-0.6016609 608.549965,-0.0566782007 608.334464,2.66138408 C608.232941,3.94816609 607.228927,4.51681661 606.355087,4.35986159 C604.891419,4.09764706 604.938754,2.65266436 605.786436,2.57543253 C605.960208,2.55986159 605.979516,2.61591696 605.960208,2.70560554 C605.907266,2.96782007 605.96519,3.07868512 606.073564,3.15342561 C606.135225,3.19577855 606.152042,3.19577855 606.163253,3.08117647 C606.185675,2.83702422 606.323322,2.54179931 606.750588,2.50193772 C606.780484,2.50380623 606.820969,2.52934256 606.830311,2.59785467 C606.856471,2.78657439 607.140484,2.98961938 607.488651,2.87626298 C607.835571,2.76352941 607.937093,2.45086505 607.849273,1.96318339 C607.620692,0.69633218 605.172941,-0.0753633218 602.465467,2.16934256 C604.186367,1.39889273 605.163599,1.21266436 606.059239,1.48110727 C606.196886,1.52221453 606.155779,1.59134948 605.962699,1.59134948 C605.631972,1.59134948 604.296609,2.0316955 603.856263,2.45896194 C604.07301,3.2867128 603.566644,3.95190311 602.066228,3.98740484 C601.047266,4.01107266 600.281176,4.27453287 599.76609,4.74477509 C598.69481,5.72200692 597.274118,7.00318339 597.274118,7.00318339 C600.818062,10.2500346 603.760969,8.69418685 603.356747,6.51051903 C603.169896,5.50152249 602.456125,5.08110727 601.719931,5.05183391 C600.685398,5.01072664 600.071903,5.94373702 600.352803,6.69799308 C600.51474,7.13584775 600.222007,7.00442907 600.122976,6.79640138 C599.589827,5.66719723 600.636817,4.61397924 601.716817,4.64574394 C603.016055,4.68560554 603.710519,5.51584775 603.807059,6.69301038 C603.997647,9.01557093 600.928927,10.9314187 596.922837,7.32207612 L594.683114,9.56429066 L592.737993,7.61730104 L590.837093,9.49951557 L592.777232,11.470173 L590.22173,14.0256747 L587.178547,10.9793772 L589.439446,8.72096886 L588.52263,7.79294118 L586.256125,10.0600692 L584.263045,8.06013841 C580.670519,10.8168166 577.287889,8.89411765 577.287889,6.86491349 C577.287889,4.47508651 580.269412,4.24152249 580.780761,5.86027682 C580.863599,6.12186851 580.664913,6.14117647 580.51917,5.84595156 C579.982284,4.75785467 577.724498,5.03128028 577.724498,6.79640138 C577.724498,8.1516955 580.073841,10.076263 583.212941,7.01377163 C582.827405,6.65564014 581.731211,5.6167474 581.080346,5.05121107 C580.459377,4.51121107 579.334533,3.98740484 578.157993,4.04595156 C577.13218,4.09702422 576.484429,3.34027682 576.732941,2.56920415 C576.030381,2.07342561 575.328443,1.78442907 574.625882,1.7015917 C574.434048,1.67916955 574.391696,1.63307958 574.529965,1.59134948 C575.424983,1.32290657 576.401592,1.50851211 578.123114,2.28020761 C575.601246,0.184982699 573.336609,0.632802768 572.822768,1.78629758 C572.495156,2.52186851 572.863875,3.03633218 573.075017,3.10359862 C573.388927,3.20262976 573.654879,2.98214533 573.590104,2.78595156 C573.56083,2.69875433 573.592595,2.66574394 573.665467,2.63896194 C574.371142,2.38297578 574.801522,3.2817301 574.343737,3.64982699 C574.221038,3.74823529 574.254048,3.7949481 574.364291,3.80802768 C574.932318,3.87591696 575.076817,3.37266436 574.921107,3.09238754 C574.876886,3.01391003 574.848235,2.90366782 574.982145,2.85197232 C575.456125,2.66761246 575.933218,3.42871972 575.665398,4.01480969 C575.107336,5.2349481 572,5.06179931 572,2.67882353 C572,1.08747405 574.505052,-0.961038062 578.467543,2.08712803 C579.183183,2.63771626 582.456817,5.54698962 583.565467,6.66560554 L585.769066,4.46138408 L587.778962,6.46878893 L589.681107,4.56103806 Z" id="Fill-35"></path>
                </g>
            </g>
        </g>
    </g>
</svg>